<svg width="1648" height="1073" viewBox="0 0 1648 1073" fill="none" xmlns="http://www.w3.org/2000/svg">
<mask id="mask0_11_25" style="mask-type:alpha" maskUnits="userSpaceOnUse" x="0" y="0" width="1648" height="1073">
<rect width="1648" height="1073" fill="#D9D9D9"/>
</mask>
<g mask="url(#mask0_11_25)">
<path d="M909.649 406.434C1161.87 225.147 1616.86 260.234 1968 385.966V0H-69.5739C-216.292 251.463 -421.698 757.896 -69.5739 771.931C370.582 789.475 657.425 587.721 909.649 406.434Z" fill="url(#paint0_linear_11_25)" fill-opacity="0.8"/>
<path d="M883.856 564.17C673.218 312.526 293.242 361.231 0 535.758V0H1701.63C1824.16 349.055 1995.7 1052.03 1701.63 1071.52C1334.04 1095.87 1094.49 815.814 883.856 564.17Z" fill="url(#paint1_linear_11_25)"/>
</g>
<defs>
<linearGradient id="paint0_linear_11_25" x1="1463.99" y1="1.18385e-05" x2="138.141" y2="506.162" gradientUnits="userSpaceOnUse">
<stop offset="0.475" stop-color="#99DFFF"/>
<stop offset="1" stop-color="#FFECB1"/>
</linearGradient>
<linearGradient id="paint1_linear_11_25" x1="1864" y1="248.11" x2="223.567" y2="1207.26" gradientUnits="userSpaceOnUse">
<stop offset="0.035" stop-color="#4DC6FF" stop-opacity="0.7"/>
<stop offset="0.45" stop-color="#E0F5FF"/>
<stop offset="1" stop-color="#FFECB1" stop-opacity="0.8"/>
</linearGradient>
</defs>
</svg>
